<svg xmlns="http://www.w3.org/2000/svg" width="951" height="93" viewBox="0 0 951 93" fill="none"><path d="M271.022 1H343.463L343.022 20L289.463 20V37H343.022L271.022 59V1Z" fill="#070707"></path><path d="M271 62H289.022V73H343.022V92H271.022L271 62Z" fill="#070707"></path><path d="M532.899 1.60742L581 92H557.5L532.899 48.977L508.266 92H486L532.899 1.60742Z" fill="black" fill-opacity="0.99"></path><path d="M672 1H681.5H692V76V78V92H672V1Z" fill="black" fill-opacity="0.99"></path><path d="M711 1H783.441L783 20L729.441 20V37H783L711 59V1Z" fill="#070707"></path><path d="M710.978 62H729V73H783V92H711L710.978 62Z" fill="#070707"></path><path d="M802 1H821.116L848.267 47.155V1H870V29V43V57V92H848.285L821 47V92H802V1Z" fill="#070707"></path><path d="M889 11C889 5.47715 893.477 1 899 1H951V18.0045H909.039V37.4381H941C946.523 37.4381 951 41.9153 951 47.4381V82.0799C951 87.6088 946.513 92.0884 940.985 92.0799L889 92V76H910H920.5H926H931V54H910.141H899.5H899C893.477 54 889 49.5228 889 44V11Z" fill="black" fill-opacity="0.99"></path><path d="M595 1H615V74H653V84V88V90V92H605C599.477 92 595 87.5229 595 82V1Z" fill="black" fill-opacity="0.99"></path><path d="M90 0H110V33H120.5H131V0H151V46L132 57V92H109V57L90 46V33V0Z" fill="#070707"></path><path d="M170 92L170 0H217.294C227.133 0 234.303 1.98867 238.803 5.96601C243.304 9.83871 245.554 14.5487 245.554 20.096V24.806C245.554 29.0973 244.612 32.656 242.728 35.482C240.949 38.2033 239.013 40.1397 236.919 41.291C241.525 42.7563 245.188 45.3207 247.909 48.984C250.63 52.5427 251.991 57.2527 251.991 63.114V65.94C251.991 69.08 251.625 72.22 250.892 75.36C250.159 78.5 248.746 81.3783 246.653 83.995C244.665 86.507 241.786 88.548 238.018 90.118C234.355 91.688 229.466 92 223.5 92H170ZM188 37.052H213.997C217.661 37.1567 220.382 36.267 222.161 34.383C223.941 32.3943 224.83 29.9347 224.83 27.004V25.434C224.83 23.0267 223.993 20.724 222.318 18.526C220.644 16.2233 217.504 15.072 212.898 15.072H188V37.052ZM188 77H218.999C222.977 77 226.139 76.4067 228.127 74.418C230.221 72.4293 231.267 69.708 231.267 66.254V63.428C231.267 60.1833 230.064 57.5667 227.656 55.578C225.249 53.4847 221.047 52 215.499 52H188V77Z" fill="black"></path><path d="M452 92C447.813 92 436.814 92 432 92C430 89.5 429.5 89 425.261 83.425L420 77.5L413.957 72.121C409.352 67.411 404.275 63.957 398.728 61.759C393.285 59.561 386.43 58.462 378.161 58.462L386 58.5V92H362V14V1H420.551C427.25 1 432.483 1.88967 436.251 3.66901C440.124 5.44834 442.95 7.80334 444.729 10.734C446.613 13.56 447.817 16.5953 448.34 19.84C448.863 23.0847 449.125 26.1723 449.125 29.103V32.086C449.125 34.3887 448.811 36.953 448.183 39.779C447.555 42.605 446.351 45.3787 444.572 48.1C442.793 50.8213 440.228 53.124 436.879 55.008C433.634 56.892 429.343 57.991 424.005 58.305C425.366 59.0377 427.093 60.189 429.186 61.759C431.279 63.2243 433.425 64.8467 435.623 66.626C437.926 68.4053 440.019 70.0277 441.903 71.493C443.787 72.9583 445.252 74.005 446.299 74.633C450.5 77 454 79 456.5 80.5C456.5 84.5 456.5 85 456.5 86C456.495 87.6743 456.5 90 456.5 89.5V92C456.5 92 456.5 92 456 92C452 92 454.677 91.957 452 92ZM396.844 44.175C400.821 44.175 404.38 44.1227 407.52 44.018C410.66 43.8087 413.486 43.5993 415.998 43.39C420.603 42.8667 423.796 41.6107 425.575 39.622C427.459 37.5287 428.401 34.8597 428.401 31.615V28.004C428.401 24.6547 427.511 21.8287 425.732 19.526C423.953 17.2233 420.76 16.072 416.155 16.072L386 16V43.5C386 46.5 385 44 386.011 44.018C389.884 44.1227 393.495 44.175 396.844 44.175Z" fill="black"></path><path d="M0 10C0 4.47715 4.47715 0 10 0H71V33H49V21H22V68.5H49H71V92H10C4.47715 92 0 87.5229 0 82V10Z" fill="#070707"></path></svg>